<?xml version="1.0" encoding="utf-8"?>
<!-- Generator: Adobe Illustrator 24.0.3, SVG Export Plug-In . SVG Version: 6.00 Build 0)  -->
<svg version="1.1" id="Capa_1" xmlns="http://www.w3.org/2000/svg" xmlns:xlink="http://www.w3.org/1999/xlink" x="0px" y="0px"
	 width="351.1px" height="73.4px" viewBox="0 0 351.1 73.4" style="enable-background:new 0 0 351.1 73.4;" xml:space="preserve">
<style type="text/css">
	.st0{fill:#E63027;}
	.st1{fill:#4D4D4D;}
	.st2{fill:#FFFFFF;}
	.st3{fill-rule:evenodd;clip-rule:evenodd;fill:#E63027;}
	.st4{fill-rule:evenodd;clip-rule:evenodd;fill:#4D4D4D;}
</style>
<g>
	<g>
		<g>
			<path class="st0" d="M91.7,38.5l5.7,0.3c-0.3,2.5-1.2,4.4-2.8,5.7c-1.6,1.3-3.5,2-5.8,2c-2.8,0-5-0.9-6.7-2.7
				c-1.7-1.8-2.5-4.3-2.5-7.6c0-3.2,0.8-5.8,2.4-7.7c1.6-2,3.9-2.9,6.7-2.9c2.7,0,4.8,0.7,6.2,2.2c1.4,1.5,2.3,3.5,2.4,5.9l-5.8,0.3
				c0-1.4-0.3-2.3-0.8-2.9c-0.5-0.6-1.1-0.9-1.8-0.9c-2,0-2.9,2-2.9,5.9c0,2.2,0.3,3.7,0.8,4.5c0.5,0.8,1.2,1.2,2.2,1.2
				C90.5,41.9,91.5,40.8,91.7,38.5"/>
			<path class="st0" d="M108.4,46.6c-2.9,0-5.2-0.9-7-2.8c-1.8-1.9-2.7-4.4-2.7-7.6c0-3,0.9-5.5,2.6-7.5c1.7-2,4.1-3,7.2-3
				c2.8,0,5.1,0.9,6.9,2.8c1.8,1.9,2.7,4.4,2.7,7.5c0,3.2-0.9,5.8-2.7,7.8C113.6,45.6,111.3,46.6,108.4,46.6 M108.4,42
				c1.1,0,1.8-0.5,2.3-1.4c0.5-0.9,0.7-2.6,0.7-5c0-3.5-0.9-5.3-2.8-5.3c-2,0-3.1,2-3.1,6C105.4,40.1,106.4,42,108.4,42"/>
			<path class="st0" d="M138.1,46.3H133l-5.6-9c-0.7-1.2-1.4-2.6-2.2-4.2c0.3,1.3,0.5,2.4,0.5,3.3v9.8h-5.1V26h5.9l4.7,7.4
				c0.9,1.5,1.7,2.8,2.1,3.9c-0.3-1.7-0.5-3.5-0.5-5.3v-6h5.1V46.3z"/>
			<path class="st0" d="M139.5,40.4l5.8-1c0.5,1.6,1.7,2.5,3.8,2.5c1.6,0,2.4-0.4,2.4-1.3c0-0.4-0.2-0.8-0.5-1
				c-0.4-0.2-1-0.5-1.9-0.6c-3.6-0.7-5.9-1.6-6.9-2.7c-1-1.1-1.5-2.4-1.5-3.9c0-1.9,0.7-3.5,2.2-4.8c1.5-1.3,3.5-1.9,6.3-1.9
				c4.1,0,6.9,1.7,8.2,5l-5.2,1.6c-0.5-1.4-1.6-2-3.3-2c-1.4,0-2,0.4-2,1.3c0,0.4,0.2,0.7,0.5,0.9c0.3,0.2,0.9,0.4,1.8,0.6
				c2.4,0.5,4.2,1,5.2,1.4c1,0.4,1.9,1.1,2.6,2c0.7,1,1,2.1,1,3.4c0,2.1-0.8,3.7-2.5,5c-1.7,1.3-3.9,1.9-6.6,1.9
				C143.8,46.6,140.7,44.5,139.5,40.4"/>
			<polygon class="st0" points="168.8,30.8 168.8,46.3 162.8,46.3 162.8,30.8 158.6,30.8 158.6,26 173,26 173,30.8 			"/>
			<path class="st0" d="M192.8,46.3h-6.9l-3-7.8h-2v7.8h-6.2V26h10.6c2.3,0,4.2,0.5,5.5,1.6c1.3,1.1,1.9,2.5,1.9,4.3
				c0,1.2-0.2,2.2-0.7,3.1s-1.4,1.7-2.9,2.4L192.8,46.3z M181,34.2h2.7c0.8,0,1.4-0.2,1.9-0.5c0.5-0.3,0.7-0.8,0.7-1.4
				c0-1.3-0.8-2-2.4-2H181V34.2z"/>
			<path class="st0" d="M212.3,26v13.5c0,2.6-0.8,4.4-2.3,5.5c-1.5,1.1-3.5,1.7-5.9,1.7c-2.6,0-4.6-0.5-6.2-1.6
				c-1.6-1.1-2.3-2.8-2.3-5.2V26h6.3V39c0,1,0.2,1.7,0.6,2.1c0.4,0.4,1.1,0.7,2,0.7c0.8,0,1.4-0.2,1.8-0.5c0.5-0.3,0.8-0.7,0.9-1.1
				c0.1-0.4,0.1-1.2,0.1-2.4V26H212.3z"/>
			<path class="st0" d="M221.9,38.9v7.4h-6.3V26h8.7c2.2,0,3.8,0.2,4.9,0.7c1.1,0.5,2,1.3,2.7,2.3c0.7,1,1,2.2,1,3.4
				c0,1.9-0.7,3.5-2,4.7c-1.4,1.2-3.2,1.8-5.4,1.8H221.9z M221.9,34.5h2.1c1.8,0,2.8-0.7,2.8-2c0-1.3-0.8-1.9-2.5-1.9h-2.3V34.5z"/>
			<polygon class="st0" points="249.5,41.3 249.5,46.3 235.2,46.3 235.2,26 241.5,26 241.5,41.3 			"/>
			<path class="st0" d="M262.9,46.3l-1.1-4h-5.4l-1.2,4H250l6.3-20.3h6.6l6.4,20.3H262.9z M257.3,37.9h3.3L259,32L257.3,37.9z"/>
			<polygon class="st0" points="286.8,41.5 286.8,46.3 269.8,46.3 269.8,42.4 278.9,30.7 270.5,30.7 270.5,26 286.5,26 286.5,29.9 
				277.7,41.5 			"/>
			<path class="st0" d="M300.2,46.3l-1.1-4h-5.4l-1.2,4h-5.1l6.3-20.3h6.6l6.4,20.3H300.2z M294.7,37.9h3.3l-1.6-5.9L294.7,37.9z"/>
			<rect x="308.9" y="40.9" class="st0" width="5.7" height="5.4"/>
			<path class="st1" d="M328.8,38.5l5.7,0.3c-0.3,2.5-1.2,4.4-2.8,5.7c-1.6,1.3-3.5,2-5.8,2c-2.8,0-5-0.9-6.7-2.7
				c-1.7-1.8-2.5-4.3-2.5-7.6c0-3.2,0.8-5.8,2.4-7.7c1.6-2,3.9-2.9,6.7-2.9c2.7,0,4.8,0.7,6.2,2.2c1.4,1.5,2.3,3.5,2.5,5.9l-5.8,0.3
				c0-1.4-0.3-2.3-0.8-2.9c-0.5-0.6-1.1-0.9-1.8-0.9c-2,0-2.9,2-2.9,5.9c0,2.2,0.3,3.7,0.8,4.5c0.5,0.8,1.2,1.2,2.2,1.2
				C327.7,41.9,328.7,40.8,328.8,38.5"/>
			<polygon class="st0" points="351.1,41.3 351.1,46.3 336.8,46.3 336.8,26 343.1,26 343.1,41.3 			"/>
		</g>
		<path class="st0" d="M300.5,50.2V63h49.9V50.2H300.5z"/>
		<path class="st2" d="M303.6,59.3c-0.1,0.1-0.1,0.2-0.2,0.3c0-0.3-0.1-0.6-0.3-0.7c-0.2-0.2-0.4-0.2-0.6-0.2c-0.2,0-0.4,0-0.5,0.1
			c-0.2,0.1-0.3,0.2-0.3,0.4c-0.1,0.2-0.1,0.4-0.1,0.7v1.5h3.4v-0.4h-1.5v-0.5c0-0.1,0-0.2,0-0.2c0-0.1,0-0.1,0.1-0.2
			c0-0.1,0.1-0.1,0.2-0.2c0.1-0.1,0.3-0.2,0.5-0.3l0.7-0.4v-0.6l-0.9,0.6C303.8,59,303.7,59.2,303.6,59.3z M303,60.9h-1.1v-1.1
			c0-0.2,0.1-0.4,0.2-0.5c0.1-0.1,0.2-0.2,0.4-0.2c0.1,0,0.2,0,0.3,0.1c0.1,0.1,0.2,0.1,0.2,0.3c0,0.1,0.1,0.3,0.1,0.5V60.9z
			 M349.1,56.6c-0.6-0.8-2.1-1.2-2.1-1.2c-0.4-0.2-2.7-0.5-2.7-0.5c-0.7-0.1-0.5-0.5-0.5-0.5c0-0.5,1.4-0.4,1.5-0.4
			c0.7,0,2.3,0.7,2.3,0.7l1.4-2.6c-1.3-0.7-3.6-0.8-3.6-0.8c-2-0.2-3.8,0.5-3.8,0.5c-2.8,0.9-2.7,3-2.7,3c0,0.6,0.3,1.4,1.1,1.9
			c1.1,0.7,2.8,0.8,2.9,0.8c0.8,0,1.3,0.2,1.3,0.2c0.6,0.2,0.2,0.7,0.2,0.7c-0.3,0.2-1,0.2-1,0.2c-1.6,0.1-3.4-1-3.4-1l-1.4,2.8
			c1.2,0.4,2.9,0.7,2.9,0.7c1,0.2,1.3,0.2,2.9,0.2c1.6,0,3.1-0.7,3.1-0.7c1.6-0.7,1.9-1.7,1.9-1.7C349.9,57.7,349.1,56.6,349.1,56.6
			z M304.5,57.3h-1.1v-1.9H303v1.9h-1v-2h-0.4v2.4h3.4v-2.5h-0.4V57.3z M338.5,51.6h-10.4v3.2h2.7v6.6h5v-6.6h2.7V51.6z M304.7,52.3
			c-0.1-0.1-0.2-0.2-0.3-0.3c-0.1-0.1-0.3-0.2-0.5-0.2c-0.2-0.1-0.4-0.1-0.7-0.1c-0.3,0-0.6,0-0.8,0.1c-0.2,0.1-0.4,0.2-0.6,0.4
			c-0.1,0.1-0.2,0.3-0.2,0.5c0,0.1,0,0.3,0,0.6v1.2h3.4v-1.2c0-0.2,0-0.4-0.1-0.5C304.8,52.5,304.8,52.4,304.7,52.3z M304.5,54H302
			v-0.7c0-0.3,0-0.5,0.1-0.6c0.1-0.2,0.2-0.3,0.4-0.4c0.2-0.1,0.5-0.2,0.8-0.2c0.3,0,0.5,0,0.6,0.1c0.2,0.1,0.3,0.1,0.4,0.2
			c0.1,0.1,0.1,0.2,0.2,0.3c0,0.1,0.1,0.3,0.1,0.5V54z M349.5,61.4c-0.4,0-0.7,0.3-0.7,0.7c0,0.4,0.3,0.7,0.7,0.7
			c0.4,0,0.7-0.3,0.7-0.7C350.2,61.7,349.9,61.4,349.5,61.4z M349.5,62.6c-0.3,0-0.6-0.3-0.6-0.6c0-0.3,0.3-0.6,0.6-0.6
			c0.3,0,0.6,0.3,0.6,0.6C350.1,62.4,349.8,62.6,349.5,62.6z M349.9,61.9c0-0.2-0.1-0.2-0.3-0.2h-0.3v0.8h0.1v-0.3h0.2l0.2,0.3h0.1
			l-0.2-0.3C349.8,62.1,349.9,62,349.9,61.9z M349.6,62h-0.2v-0.3h0.2c0.1,0,0.1,0,0.1,0.1C349.8,62,349.7,62,349.6,62z M322,51.6
			l-1.9,5.1l-1.8-5.1H313l-2.2,9.8h4.9l0.7-5.4l2.1,5.4h2.9l2.2-5.4l0.7,5.4h4.8l-2.3-9.8H322z"/>
		<g>
			<path class="st1" d="M83.6,54v3.1h4.9v1.6h-4.9v3.9h-1.9V52.4h7.5V54H83.6z"/>
			<path class="st1" d="M98.6,61v1.6H91V52.4h7.5V54h-5.6v2.7h4.9v1.6h-4.9V61H98.6z"/>
			<path class="st1" d="M107.4,62.6l-2.1-3c-0.1,0-0.2,0-0.4,0h-2.3v3h-1.9V52.4h4.2c0.9,0,1.7,0.1,2.3,0.4c0.7,0.3,1.2,0.7,1.5,1.3
				c0.4,0.5,0.5,1.2,0.5,1.9c0,0.8-0.2,1.4-0.6,2c-0.4,0.6-0.9,1-1.6,1.2l2.3,3.4H107.4z M106.7,54.6c-0.4-0.4-1.1-0.5-1.9-0.5h-2.2
				v4.1h2.2c0.8,0,1.5-0.2,1.9-0.5c0.4-0.4,0.6-0.9,0.6-1.5C107.4,55.4,107.1,54.9,106.7,54.6z"/>
			<path class="st1" d="M118.1,62.6l-2.1-3c-0.1,0-0.2,0-0.4,0h-2.3v3h-1.9V52.4h4.2c0.9,0,1.7,0.1,2.3,0.4c0.7,0.3,1.2,0.7,1.5,1.3
				c0.4,0.5,0.5,1.2,0.5,1.9c0,0.8-0.2,1.4-0.6,2c-0.4,0.6-0.9,1-1.6,1.2l2.3,3.4H118.1z M117.4,54.6c-0.4-0.4-1.1-0.5-1.9-0.5h-2.2
				v4.1h2.2c0.8,0,1.5-0.2,1.9-0.5c0.4-0.4,0.6-0.9,0.6-1.5C118,55.4,117.8,54.9,117.4,54.6z"/>
			<path class="st1" d="M129.7,61v1.6H122V52.4h7.5V54h-5.6v2.7h4.9v1.6h-4.9V61H129.7z"/>
			<path class="st1" d="M133.9,54h-3.4v-1.6h8.7V54h-3.4v8.6h-1.9V54z"/>
			<path class="st1" d="M148.2,61v1.6h-7.7V52.4h7.5V54h-5.6v2.7h4.9v1.6h-4.9V61H148.2z"/>
			<path class="st1" d="M157,62.6l-2.1-3c-0.1,0-0.2,0-0.4,0h-2.3v3h-1.9V52.4h4.2c0.9,0,1.7,0.1,2.3,0.4c0.7,0.3,1.2,0.7,1.5,1.3
				c0.4,0.5,0.5,1.2,0.5,1.9c0,0.8-0.2,1.4-0.6,2c-0.4,0.6-0.9,1-1.6,1.2l2.3,3.4H157z M156.3,54.6c-0.4-0.4-1.1-0.5-1.9-0.5h-2.2
				v4.1h2.2c0.8,0,1.5-0.2,1.9-0.5c0.4-0.4,0.6-0.9,0.6-1.5C157,55.4,156.8,54.9,156.3,54.6z"/>
			<path class="st1" d="M163,62.1c-0.8-0.5-1.5-1.1-2-1.9c-0.5-0.8-0.7-1.7-0.7-2.7c0-1,0.2-1.9,0.7-2.7c0.5-0.8,1.1-1.4,2-1.9
				c0.8-0.5,1.8-0.7,2.8-0.7c1,0,2,0.2,2.8,0.7c0.8,0.5,1.5,1.1,2,1.9c0.5,0.8,0.7,1.7,0.7,2.7c0,1-0.2,1.9-0.7,2.7
				c-0.5,0.8-1.1,1.4-2,1.9c-0.8,0.5-1.8,0.7-2.8,0.7C164.7,62.8,163.8,62.5,163,62.1z M167.6,60.7c0.5-0.3,1-0.7,1.3-1.3
				c0.3-0.5,0.5-1.2,0.5-1.8c0-0.7-0.2-1.3-0.5-1.8c-0.3-0.5-0.7-1-1.3-1.3c-0.5-0.3-1.2-0.5-1.8-0.5c-0.7,0-1.3,0.2-1.8,0.5
				c-0.5,0.3-1,0.7-1.3,1.3c-0.3,0.5-0.5,1.2-0.5,1.8c0,0.7,0.2,1.3,0.5,1.8c0.3,0.5,0.7,1,1.3,1.3c0.5,0.3,1.2,0.5,1.8,0.5
				C166.5,61.1,167.1,61,167.6,60.7z"/>
			<path class="st1" d="M174.2,62.4c-0.7-0.2-1.3-0.5-1.7-0.9l0.7-1.5c0.4,0.3,0.9,0.6,1.5,0.8c0.6,0.2,1.2,0.3,1.8,0.3
				c0.8,0,1.3-0.1,1.7-0.4c0.4-0.2,0.6-0.6,0.6-1c0-0.3-0.1-0.5-0.3-0.7c-0.2-0.2-0.5-0.3-0.8-0.4c-0.3-0.1-0.8-0.2-1.3-0.4
				c-0.8-0.2-1.4-0.4-1.9-0.6c-0.5-0.2-0.9-0.5-1.2-0.9c-0.3-0.4-0.5-0.9-0.5-1.6c0-0.6,0.2-1.1,0.5-1.5c0.3-0.5,0.8-0.8,1.4-1.1
				c0.6-0.3,1.4-0.4,2.3-0.4c0.6,0,1.2,0.1,1.8,0.2c0.6,0.2,1.1,0.4,1.6,0.7l-0.6,1.5c-0.4-0.3-0.9-0.5-1.4-0.6
				c-0.5-0.1-1-0.2-1.4-0.2c-0.7,0-1.3,0.1-1.7,0.4c-0.4,0.3-0.5,0.6-0.5,1c0,0.3,0.1,0.5,0.3,0.7c0.2,0.2,0.5,0.3,0.8,0.4
				c0.3,0.1,0.8,0.2,1.3,0.4c0.8,0.2,1.4,0.4,1.9,0.5c0.5,0.2,0.9,0.5,1.2,0.9c0.3,0.4,0.5,0.9,0.5,1.6c0,0.6-0.2,1.1-0.5,1.5
				c-0.3,0.5-0.8,0.8-1.4,1.1c-0.6,0.3-1.4,0.4-2.3,0.4C175.7,62.8,174.9,62.7,174.2,62.4z"/>
			<path class="st1" d="M186.5,52.4h4.5c1.1,0,2.1,0.2,2.9,0.6c0.8,0.4,1.5,1,2,1.8c0.5,0.8,0.7,1.7,0.7,2.7c0,1-0.2,1.9-0.7,2.7
				c-0.5,0.8-1.1,1.4-2,1.8c-0.8,0.4-1.8,0.6-2.9,0.6h-4.5V52.4z M190.9,61c0.7,0,1.4-0.1,2-0.4c0.6-0.3,1-0.7,1.3-1.2
				c0.3-0.5,0.5-1.1,0.5-1.8c0-0.7-0.2-1.3-0.5-1.8c-0.3-0.5-0.7-0.9-1.3-1.2c-0.6-0.3-1.2-0.4-2-0.4h-2.5v7H190.9z"/>
			<path class="st1" d="M206.2,61v1.6h-7.7V52.4h7.5V54h-5.6v2.7h4.9v1.6h-4.9V61H206.2z"/>
			<path class="st1" d="M221.7,52.4l-4.4,10.2h-1.9l-4.5-10.2h2.1l3.4,7.9l3.4-7.9H221.7z"/>
			<path class="st1" d="M230.4,61v1.6h-7.7V52.4h7.5V54h-5.6v2.7h4.9v1.6h-4.9V61H230.4z"/>
			<path class="st1" d="M239.2,62.6l-2.1-3c-0.1,0-0.2,0-0.4,0h-2.3v3h-1.9V52.4h4.2c0.9,0,1.7,0.1,2.3,0.4c0.7,0.3,1.2,0.7,1.5,1.3
				c0.4,0.5,0.5,1.2,0.5,1.9c0,0.8-0.2,1.4-0.6,2c-0.4,0.6-0.9,1-1.6,1.2l2.3,3.4H239.2z M238.5,54.6c-0.4-0.4-1.1-0.5-1.9-0.5h-2.2
				v4.1h2.2c0.8,0,1.5-0.2,1.9-0.5c0.4-0.4,0.6-0.9,0.6-1.5C239.1,55.4,238.9,54.9,238.5,54.6z"/>
			<path class="st1" d="M243.2,52.4h4.5c1.1,0,2.1,0.2,2.9,0.6c0.8,0.4,1.5,1,2,1.8c0.5,0.8,0.7,1.7,0.7,2.7c0,1-0.2,1.9-0.7,2.7
				c-0.5,0.8-1.1,1.4-2,1.8c-0.8,0.4-1.8,0.6-2.9,0.6h-4.5V52.4z M247.5,61c0.7,0,1.4-0.1,2-0.4c0.6-0.3,1-0.7,1.3-1.2
				c0.3-0.5,0.5-1.1,0.5-1.8c0-0.7-0.2-1.3-0.5-1.8c-0.3-0.5-0.7-0.9-1.3-1.2c-0.6-0.3-1.2-0.4-2-0.4h-2.5v7H247.5z"/>
			<path class="st1" d="M261.7,60.3h-5.1l-1,2.4h-2l4.6-10.2h1.9l4.6,10.2h-2L261.7,60.3z M261.1,58.8l-1.9-4.5l-1.9,4.5H261.1z"/>
			<path class="st1" d="M266,52.4h4.5c1.1,0,2.1,0.2,2.9,0.6c0.8,0.4,1.5,1,2,1.8c0.5,0.8,0.7,1.7,0.7,2.7c0,1-0.2,1.9-0.7,2.7
				c-0.5,0.8-1.1,1.4-2,1.8c-0.8,0.4-1.8,0.6-2.9,0.6H266V52.4z M270.4,61c0.7,0,1.4-0.1,2-0.4c0.6-0.3,1-0.7,1.3-1.2
				c0.3-0.5,0.5-1.1,0.5-1.8c0-0.7-0.2-1.3-0.5-1.8c-0.3-0.5-0.7-0.9-1.3-1.2c-0.6-0.3-1.2-0.4-2-0.4h-2.5v7H270.4z"/>
		</g>
	</g>
	<g>
		<path class="st0" d="M49.1,47.5c-0.5,0.2-1.1,0.4-1.7,0.5c-1.4,0.4-2.8,0.7-4.2,1.1c-0.6,0.2-1,0-1.1-0.6
			c-0.1-0.4,0.2-0.7,0.7-0.9c1.4-0.4,2.8-0.8,4.3-1.2c0.6-0.2,1.2-0.3,1.8-0.4c0.4-0.1,0.7,0.1,0.8,0.5
			C49.7,46.8,49.6,47.2,49.1,47.5"/>
		<path class="st0" d="M48.7,43.9c-0.5-0.1-1.1-0.3-1.8-0.4c-1.4-0.4-2.8-0.8-4.2-1.2c-0.6-0.2-0.8-0.5-0.6-1.1
			c0.1-0.4,0.6-0.5,1.1-0.4c1.4,0.4,2.8,0.8,4.3,1.2c0.6,0.2,1.2,0.4,1.8,0.6c0.3,0.1,0.5,0.4,0.4,0.8C49.6,43.8,49.2,44,48.7,43.9"
			/>
		<path class="st0" d="M50.1,40.5c-0.4-0.4-0.9-0.8-1.3-1.2c-1-1-2.1-2.1-3.1-3.1c-0.4-0.4-0.5-0.9,0-1.2c0.3-0.3,0.7-0.2,1.1,0.2
			c1,1,2.1,2,3.2,3.1c0.4,0.4,0.9,0.9,1.3,1.4c0.2,0.3,0.2,0.6,0,0.9C50.9,40.8,50.5,40.8,50.1,40.5"/>
		<path class="st0" d="M53,38.5c-0.1-0.5-0.3-1.1-0.5-1.8c-0.3-1.4-0.7-2.8-1-4.2c-0.1-0.6,0.1-1,0.6-1.1c0.4-0.1,0.7,0.3,0.8,0.7
			c0.4,1.4,0.7,2.9,1.1,4.3c0.2,0.6,0.3,1.2,0.4,1.9c0.1,0.4-0.1,0.7-0.5,0.8C53.6,39.2,53.2,39,53,38.5"/>
		<path class="st0" d="M56.7,38.1c0.1-0.5,0.2-1.1,0.4-1.8c0.4-1.4,0.7-2.8,1.1-4.2c0.2-0.6,0.5-0.8,1-0.7c0.4,0.1,0.5,0.6,0.4,1.1
			c-0.4,1.4-0.7,2.9-1.1,4.3c-0.2,0.6-0.3,1.2-0.5,1.8c-0.1,0.3-0.4,0.5-0.8,0.4C56.9,39,56.7,38.7,56.7,38.1"/>
		<path class="st0" d="M60.1,39.5c0.4-0.4,0.8-0.9,1.2-1.3c1-1,2-2.1,3.1-3.1c0.4-0.4,0.9-0.5,1.2-0.1c0.3,0.3,0.2,0.7-0.2,1.1
			c-1,1.1-2,2.1-3.1,3.2c-0.4,0.5-0.9,0.9-1.4,1.3c-0.3,0.2-0.6,0.2-0.9,0C59.8,40.4,59.8,40,60.1,39.5"/>
		<path class="st0" d="M62,42.5c0.5-0.2,1.1-0.4,1.7-0.5c1.4-0.4,2.8-0.8,4.2-1.2c0.6-0.2,1,0,1.1,0.6c0.1,0.4-0.2,0.7-0.7,0.9
			c-1.4,0.4-2.8,0.8-4.2,1.2c-0.6,0.2-1.2,0.3-1.8,0.4c-0.4,0.1-0.7-0.1-0.8-0.5C61.4,43.2,61.6,42.8,62,42.5"/>
		<path class="st0" d="M51.1,49.4c-0.3-0.3-0.6-0.3-0.9,0c-0.5,0.4-0.9,0.8-1.4,1.3c-1,1-2.1,2.1-3.1,3.1c-0.3,0.3-0.4,0.6-0.3,0.9
			l2.2-0.6c0.8-0.7,1.5-1.5,2.3-2.2c0.5-0.5,0.9-0.9,1.2-1.3C51.4,50,51.4,49.6,51.1,49.4"/>
		<path class="st2" d="M59.1,46.5c-0.2-1-1.1-1.6-2.1-1.4l-0.1,0c-1.2,0.2-2,1.4-1.7,2.6l0.5,3l1.1,6.5c0,0.2,0.9,4.7,0.9,4.7
			c-0.5-0.3-1-0.7-1.4-1c-1.1-0.8-2.9-1.2-4-1.1c-0.6,0.1-1,0.2-1.3,0.5c-0.1,0.1-0.2,0.2-0.2,0.3c-0.5,0.7-0.7,1.6-0.2,2.2
			c0.2,0.3,0.6,0.4,0.9,0.5c0.5,0.2,1.2,0.3,1.9,0.9c1.1,0.9,3.6,3,5.1,4.1c0.3,0.1,0.9,0.5,1.2,0.6c0.9,0.3,1.6,0.7,1.9,0.9
			c0.2,0.2,1.3,0.5,1.3,0.5c0.9,0.4,2.5,0.5,4.3,0.2c1.7-0.4,3.3-0.6,4.3-1.8l0.1,0l0-0.1c1-1.3,1.4-3,1.1-4.6
			c-0.1-0.4-0.4-1.9-0.4-2.2L71,56.1c-0.1-0.4-0.4-1.7-1.6-1.8c-0.6-0.1-1.1,0.1-1.4,0.4l-0.1,0l0,0c-0.3-0.7-0.9-1-1.6-1
			c-0.9,0-1.4,0.4-1.7,0.7c-0.5-0.7-1.3-0.9-2.2-0.7c-0.7,0.2-1.2,0.7-1.5,1.2l-1-4.9L59.1,46.5z"/>
		<path class="st3" d="M58,69.3l-0.1-0.1c-1.5-1.1-4-3.1-5.2-4.1c-0.4-0.3-0.8-0.5-1.2-0.6c-0.1,0-0.3-0.1-0.4-0.1
			c-0.1-0.1-0.3-0.1-0.4-0.2c-3.4,1.1-7.1,1.8-10.9,1.8C22.3,65.9,8,52.8,8,36.6C8,20.5,22.3,7.4,39.8,7.4
			c11.8,0,22.1,5.9,27.6,14.7l9,0C70.3,9.1,56.2,0,39.8,0C17.8,0,0,16.4,0,36.6c0,20.2,17.8,36.6,39.8,36.6
			C46.4,73.3,52.6,71.8,58,69.3L58,69.3z"/>
		<g>
			<path class="st4" d="M50,60.2c0.1-0.1,0.2-0.3,0.3-0.4c0.4-0.5,1-0.7,1.9-0.8c0.9-0.1,2.1,0.1,3.2,0.5c0.3-0.2,0.5-0.3,0.8-0.5
				c-0.2-1-0.3-1.5-0.3-1.6l-0.3-2l-1.1-3.6c-0.1,0.5-0.2,1.1-0.4,1.7c-0.3,1.4-0.7,2.8-1,4.2c-0.1,0.6-0.5,0.8-1,0.7
				c-0.4-0.1-0.5-0.5-0.4-1c0.3-1.4,0.7-2.9,1-4.3c0.1-0.6,0.3-1.2,0.5-1.8c0,0,0-0.1,0-0.1c-1.7,1.2-3.5,2.1-5.5,2.8
				c-0.3,0.3-0.6,0.5-0.8,0.8c-0.4,0.4-0.9,0.4-1.2,0c-0.1-0.1-0.1-0.1-0.1-0.2c-1.7,0.4-3.4,0.6-5.3,0.6
				c-11.8,0-21.3-8.8-21.3-19.7c0-10.9,9.6-19.7,21.3-19.7c6.3,0,11.9,2.2,15.8,6.2h8.6C59.4,14.6,50.2,9.7,39.8,9.7
				c-16.2,0-29.3,12.1-29.3,27s13.1,27,29.3,27c3.3,0,6.5-0.5,9.5-1.5C49.3,61.5,49.6,60.8,50,60.2z"/>
			<path class="st4" d="M52.3,60.8c-0.5,0-0.6,0.2-0.7,0.2c0,0.1-0.1,0.1-0.1,0.2c-0.1,0.1-0.1,0.2-0.1,0.2c0.5-0.2,1-0.4,1.5-0.6
				C52.6,60.8,52.5,60.8,52.3,60.8z"/>
		</g>
		<path class="st0" d="M59.1,46.5c-0.2-1-1.1-1.6-2.1-1.4l-0.1,0c-1.2,0.2-2,1.4-1.7,2.6l0.5,3l1.1,6.5c0,0.2,0.9,4.7,0.9,4.7
			c-0.5-0.3-1-0.7-1.4-1c-1.1-0.8-2.9-1.2-4-1.1c-0.6,0.1-1,0.2-1.3,0.5c-0.1,0.1-0.2,0.2-0.2,0.3c-0.5,0.7-0.7,1.6-0.2,2.2
			c0.2,0.3,0.6,0.4,0.9,0.5c0.5,0.2,1.2,0.3,1.9,0.9c1.1,0.9,3.6,3,5.1,4.1c0.3,0.1,0.9,0.5,1.2,0.6c0.9,0.3,1.6,0.7,1.9,0.9
			c0.2,0.2,1.3,0.5,1.3,0.5c0.9,0.4,2.5,0.5,4.3,0.2c1.7-0.4,3.3-0.6,4.3-1.8l0.1,0l0-0.1c1-1.3,1.4-3,1.1-4.6
			c-0.1-0.4-0.4-1.9-0.4-2.2L71,56.1c-0.1-0.4-0.4-1.7-1.6-1.8c-0.6-0.1-1.1,0.1-1.4,0.4l-0.1,0l0,0c-0.3-0.7-0.9-1-1.6-1
			c-0.9,0-1.4,0.4-1.7,0.7c-0.5-0.7-1.3-0.9-2.2-0.7c-0.7,0.2-1.2,0.7-1.5,1.2l-1-4.9L59.1,46.5z"/>
	</g>
</g>
</svg>
